<svg xmlns="http://www.w3.org/2000/svg" xmlns:xlink="http://www.w3.org/1999/xlink" width="500" zoomAndPan="magnify" viewBox="0 0 375 273.749983" height="365" preserveAspectRatio="xMidYMid meet" version="1.0"><defs><clipPath id="021ecf0e8a"><path d="M 36 12 L 321 12 L 321 269.230469 L 36 269.230469 Z M 36 12 " clip-rule="nonzero"/></clipPath></defs><path fill="#ffab67" d="M 180.417969 146.636719 L 141.238281 241.121094 C 139.417969 245.511719 135.128906 248.375 130.371094 248.375 L 7.445312 248.375 C 3.195312 248.375 0.308594 244.0625 1.933594 240.140625 L 41.113281 145.65625 C 42.929688 141.269531 47.222656 138.402344 51.976562 138.402344 L 174.894531 138.402344 C 179.15625 138.402344 182.039062 142.71875 180.417969 146.636719 Z M 367.847656 24.347656 L 244.929688 24.347656 C 240.171875 24.347656 235.882812 27.210938 234.0625 31.601562 L 194.886719 126.082031 C 193.261719 130.003906 196.148438 134.316406 200.398438 134.316406 L 323.316406 134.316406 C 328.074219 134.316406 332.363281 131.453125 334.183594 127.0625 L 373.359375 32.578125 C 374.984375 28.660156 372.101562 24.347656 367.847656 24.347656 Z M 367.847656 24.347656 " fill-opacity="1" fill-rule="nonzero"/><path fill="#ff6b5b" d="M 325.386719 146.636719 L 286.207031 241.121094 C 284.386719 245.511719 280.097656 248.375 275.339844 248.375 L 152.421875 248.375 C 148.171875 248.375 145.285156 244.0625 146.910156 240.140625 L 186.085938 145.65625 C 187.90625 141.269531 192.195312 138.402344 196.953125 138.402344 L 319.871094 138.402344 C 324.125 138.402344 327.015625 142.71875 325.386719 146.636719 Z M 55.414062 134.316406 L 178.332031 134.316406 C 183.089844 134.316406 187.378906 131.453125 189.199219 127.0625 L 228.378906 32.578125 C 230 28.660156 227.117188 24.347656 222.863281 24.347656 L 99.953125 24.347656 C 95.195312 24.347656 90.90625 27.210938 89.085938 31.601562 L 49.902344 126.074219 C 48.277344 130.003906 51.164062 134.316406 55.414062 134.316406 Z M 323.390625 94.273438 L 317.019531 89.847656 L 284.863281 100.644531 L 280.429688 105.898438 C 280.429688 105.898438 254.378906 108.386719 235.519531 115.859375 C 221.503906 121.417969 217.609375 130.183594 216.527344 134.316406 L 323.308594 134.316406 C 328.066406 134.316406 332.355469 131.453125 334.175781 127.0625 L 351.257812 85.871094 C 337.800781 88.140625 323.390625 94.273438 323.390625 94.273438 Z M 98.308594 207.191406 C 81.121094 212.175781 75.578125 214.941406 75.578125 214.941406 C 75.578125 214.941406 41.480469 220.476562 22.910156 228.507812 C 10.359375 233.929688 5.914062 242.507812 4.351562 247.507812 C 5.242188 248.050781 6.289062 248.375 7.445312 248.375 L 130.363281 248.375 C 131.429688 248.375 132.472656 248.222656 133.46875 247.953125 C 132.152344 242.269531 130.660156 235.136719 129.632812 228.226562 C 127.410156 213.285156 115.496094 202.207031 98.308594 207.191406 Z M 98.308594 207.191406 " fill-opacity="1" fill-rule="nonzero"/><path fill="#ffffff" d="M 191.335938 121.914062 L 189.199219 127.0625 C 188.800781 128.027344 188.269531 128.917969 187.652344 129.726562 L 164.488281 133.300781 L 164.375 134.316406 L 79.464844 134.316406 L 57.582031 107.566406 C 40.6875 80.382812 44.117188 63.546875 51.601562 53.171875 C 59.085938 42.789062 82.789062 46.777344 82.789062 46.777344 C 109.628906 51.105469 140.65625 61.894531 155.34375 67.488281 C 171.144531 73.507812 183.617188 83.476562 187.152344 101.117188 C 188.949219 110.113281 190.378906 117.15625 191.335938 121.914062 Z M 191.335938 121.914062 " fill-opacity="1" fill-rule="nonzero"/><g clip-path="url(#021ecf0e8a)"><path fill="#c04f44" d="M 310.230469 77.660156 L 314.179688 91.363281 L 310.644531 97.378906 L 300.042969 115.648438 L 286.109375 103.605469 L 287.152344 98.621094 C 287.152344 98.621094 281.539062 100.90625 273.21875 100.28125 C 264.902344 99.65625 259.914062 89.070312 258.871094 77.035156 C 257.828125 64.996094 252.429688 45.894531 261.160156 28.464844 C 269.886719 11.023438 306.898438 11.859375 317.5 27.007812 C 328.105469 42.171875 310.230469 77.660156 310.230469 77.660156 Z M 238.65625 134.316406 C 238.761719 132.5 238.910156 130.179688 239.121094 128.105469 C 239.539062 123.949219 248.683594 116.890625 253.054688 111.914062 C 257.421875 106.933594 260.75 102.160156 262.828125 99.257812 C 264.902344 96.351562 262.199219 94.898438 259.503906 96.140625 C 256.800781 97.386719 247.859375 102.160156 247.859375 102.160156 C 247.859375 102.160156 250.148438 90.117188 250.148438 86.175781 C 250.148438 82.230469 246.402344 57.734375 243.496094 58.148438 C 240.589844 58.5625 241.003906 63.132812 241.003906 63.132812 C 241.003906 63.132812 239.757812 58.976562 237.46875 59.8125 C 235.179688 60.644531 236.222656 64.171875 236.222656 64.171875 C 236.222656 64.171875 234.5625 60.644531 232.6875 61.269531 C 230.816406 61.894531 231.027344 66.253906 231.027344 66.253906 C 231.027344 66.253906 228.738281 65.425781 227.28125 66.253906 C 225.824219 67.082031 226.867188 85.554688 226.867188 85.554688 C 226.867188 85.554688 222.5 99.46875 218.550781 109.84375 C 215.019531 119.132812 216.808594 127.585938 216.769531 134.316406 Z M 92.976562 57.320312 C 94.433594 61.886719 99.214844 61.886719 99.214844 61.886719 C 99.214844 61.886719 105.238281 85.546875 114.390625 87.003906 C 123.546875 88.457031 124.164062 82.847656 124.164062 82.847656 C 124.164062 82.847656 135.394531 84.507812 140.589844 76.207031 C 145.785156 67.90625 148.074219 50.675781 146.199219 33.445312 C 144.328125 16.21875 128.527344 9.574219 113.351562 13.519531 C 96.367188 17.929688 89.652344 29.707031 95.265625 49.222656 C 95.257812 49.226562 91.519531 52.757812 92.976562 57.320312 Z M 68.855469 134.121094 L 145.574219 134.121094 L 94.433594 117.519531 L 87.367188 97.386719 L 57.589844 107.566406 C 57.589844 107.566406 58.886719 114.402344 61.796875 121.460938 C 64.695312 128.519531 68.855469 134.121094 68.855469 134.121094 Z M 164.496094 134.316406 L 178.332031 134.316406 C 182.539062 134.316406 186.382812 132.078125 188.472656 128.527344 L 163.871094 128.527344 Z M 45.363281 148.660156 C 30.8125 164.847656 36.421875 181.457031 47.441406 190.386719 C 58.457031 199.3125 67.1875 200.554688 67.1875 200.554688 L 64.90625 217.160156 C 76.964844 223.589844 90.890625 216.328125 90.890625 216.328125 L 90.679688 205.742188 C 100.035156 205.742188 106.894531 198.6875 106.894531 188.101562 C 106.894531 177.515625 101.070312 164.855469 94.417969 151.570312 C 87.773438 138.277344 59.914062 132.460938 45.363281 148.660156 Z M 157.355469 164.847656 C 154.167969 160.835938 149.175781 158.070312 149.175781 158.070312 C 149.175781 158.070312 137.945312 143.539062 137.257812 142.152344 C 136.5625 140.765625 134.488281 140.90625 134.765625 141.738281 C 135.046875 142.566406 139.757812 151.976562 139.757812 151.976562 C 139.757812 151.976562 131.300781 142.84375 130.199219 141.320312 C 129.089844 139.800781 127.148438 141.320312 127.5625 142.152344 C 127.976562 142.980469 135.460938 153.777344 135.460938 153.777344 C 135.460938 153.777344 125.621094 145.332031 124.375 143.886719 C 123.128906 142.429688 120.425781 143.675781 121.671875 145.339844 C 122.917969 147 131.445312 157.382812 131.445312 157.382812 C 131.445312 157.382812 120.214844 147.421875 119.179688 146.796875 C 118.136719 146.171875 115.644531 146.585938 117.105469 149.082031 C 118.5625 151.570312 135.402344 169.007812 135.402344 169.007812 C 135.402344 169.007812 120.847656 165.066406 120.433594 166.933594 C 120.019531 168.804688 126.257812 171.917969 131.453125 175.652344 C 136.648438 179.390625 143.714844 181.253906 143.714844 181.253906 L 142.734375 237.546875 L 160.714844 194.183594 C 160.546875 189.351562 160.351562 183.71875 160.277344 182.152344 C 160.125 179.242188 160.539062 168.859375 157.355469 164.847656 Z M 265.457031 141.871094 C 246.207031 133.757812 234.132812 144.917969 230.808594 151.003906 C 227.484375 157.097656 224.15625 161.523438 224.15625 161.523438 C 224.15625 161.523438 215.5625 163.179688 215.28125 164.839844 C 215.003906 166.5 220.273438 168.4375 220.273438 168.4375 C 220.273438 168.4375 217.78125 181.441406 218.054688 188.363281 C 218.332031 195.285156 237.183594 202.757812 237.183594 202.757812 L 236.070312 208.292969 L 246.605469 221.855469 L 249.378906 207.464844 L 263.515625 200.542969 L 263.792969 195.007812 C 263.792969 195.007812 280.421875 186.984375 282.09375 170.933594 C 283.753906 154.878906 277.929688 147.136719 265.457031 141.871094 Z M 250.351562 233.136719 C 238.707031 228.980469 230.394531 234.382812 224.984375 241.023438 C 222.734375 243.789062 219.910156 246.339844 217.382812 248.367188 C 217.382812 248.367188 209.816406 256.171875 206.695312 258.667969 C 203.578125 261.15625 201.289062 263.023438 202.332031 263.855469 C 203.375 264.683594 206.078125 263.644531 206.078125 263.644531 C 206.078125 263.644531 204.203125 264.886719 205.035156 265.71875 C 205.867188 266.546875 209.609375 265.507812 209.609375 265.507812 C 209.609375 265.507812 208.570312 267.578125 210.238281 267.789062 C 211.898438 268 216.265625 266.335938 216.265625 266.335938 C 216.265625 266.335938 214.601562 268.824219 216.265625 269.035156 C 217.925781 269.246094 220.839844 268.621094 223.960938 266.75 C 227.078125 264.878906 239.96875 256.578125 239.96875 256.578125 C 239.96875 256.578125 239.136719 261.351562 238.308594 264.878906 C 237.476562 268.410156 240.800781 267.367188 242.054688 265.507812 C 243.101562 263.9375 252.980469 252.085938 256.082031 248.359375 L 269.8125 248.359375 C 267.515625 245.449219 260.011719 236.582031 250.351562 233.136719 Z M 250.351562 233.136719 " fill-opacity="1" fill-rule="nonzero"/></g><path fill="#230738" d="M 229.652344 255.054688 C 229.96875 255.410156 229.933594 255.953125 229.578125 256.269531 L 217.796875 266.644531 C 217.632812 266.789062 217.425781 266.855469 217.230469 266.855469 C 216.996094 266.855469 216.753906 266.757812 216.589844 266.5625 C 216.273438 266.207031 216.308594 265.664062 216.664062 265.347656 L 228.445312 254.972656 C 228.792969 254.671875 229.335938 254.703125 229.652344 255.054688 Z M 223.535156 252.960938 C 223.210938 252.613281 222.667969 252.597656 222.320312 252.921875 L 210.957031 263.574219 C 210.609375 263.898438 210.59375 264.441406 210.917969 264.789062 C 211.082031 264.972656 211.316406 265.0625 211.542969 265.0625 C 211.753906 265.0625 211.96875 264.984375 212.132812 264.828125 L 223.5 254.171875 C 223.847656 253.847656 223.859375 253.304688 223.535156 252.960938 Z M 218.265625 251.578125 C 217.941406 251.234375 217.398438 251.21875 217.050781 251.542969 L 205.683594 262.195312 C 205.335938 262.519531 205.320312 263.0625 205.648438 263.410156 C 205.8125 263.589844 206.046875 263.679688 206.273438 263.679688 C 206.484375 263.679688 206.695312 263.605469 206.863281 263.449219 L 218.226562 252.792969 C 218.574219 252.46875 218.597656 251.925781 218.265625 251.578125 Z M 240.089844 239.476562 C 239.960938 239.019531 239.476562 238.753906 239.023438 238.882812 C 238.5625 239.011719 238.300781 239.484375 238.429688 239.945312 L 240.738281 248.097656 C 240.679688 248.828125 240.363281 252.152344 239.53125 255.117188 C 239.402344 255.574219 239.667969 256.050781 240.128906 256.171875 C 240.203125 256.195312 240.285156 256.203125 240.363281 256.203125 C 240.738281 256.203125 241.085938 255.953125 241.191406 255.574219 C 242.175781 252.070312 242.460938 248.230469 242.46875 248.074219 C 242.476562 247.976562 242.46875 247.878906 242.4375 247.78125 Z M 278.414062 62.300781 C 278.414062 63.335938 279.253906 64.171875 280.285156 64.171875 C 281.320312 64.171875 282.160156 63.335938 282.160156 62.300781 C 282.160156 61.269531 281.320312 60.433594 280.285156 60.433594 C 279.253906 60.433594 278.414062 61.269531 278.414062 62.300781 Z M 259.292969 63.757812 C 259.292969 64.789062 260.132812 65.628906 261.167969 65.628906 C 262.199219 65.628906 263.039062 64.789062 263.039062 63.757812 C 263.039062 62.726562 262.199219 61.886719 261.167969 61.886719 C 260.132812 61.886719 259.292969 62.726562 259.292969 63.757812 Z M 140.167969 56.699219 C 139.132812 56.699219 138.292969 57.539062 138.292969 58.570312 C 138.292969 59.601562 139.132812 60.441406 140.167969 60.441406 C 141.199219 60.441406 142.039062 59.601562 142.039062 58.570312 C 142.039062 57.539062 141.199219 56.699219 140.167969 56.699219 Z M 122.285156 58.773438 C 121.25 58.773438 120.410156 59.609375 120.410156 60.644531 C 120.410156 61.675781 121.25 62.515625 122.285156 62.515625 C 123.320312 62.515625 124.15625 61.675781 124.15625 60.644531 C 124.15625 59.609375 123.320312 58.773438 122.285156 58.773438 Z M 314.519531 54.136719 C 316.875 59.535156 315.347656 69.222656 309.941406 72.261719 L 310.222656 77.660156 C 310.222656 77.660156 319.78125 65.761719 321.867188 52.476562 C 323.941406 39.191406 324.5 27.292969 314.796875 18.714844 C 305.09375 10.132812 279.320312 7.78125 266.015625 18.019531 C 256.890625 25.039062 253.820312 40.714844 254.648438 41.265625 C 255.480469 41.816406 262.132812 36.839844 262.132812 36.839844 C 262.132812 36.839844 264.488281 43.066406 266.710938 42.511719 C 268.929688 41.960938 275.023438 35.867188 275.023438 35.867188 C 275.023438 35.867188 276.828125 41.679688 279.183594 41.402344 C 281.539062 41.121094 287.914062 34.894531 287.914062 34.894531 C 287.914062 34.894531 289.160156 42.367188 290.964844 42.085938 C 292.769531 41.808594 294.289062 41.121094 294.289062 41.121094 C 294.289062 41.121094 299.28125 64.234375 302.601562 62.574219 C 305.925781 60.914062 306.347656 50.53125 306.347656 50.53125 C 306.347656 50.53125 312.164062 48.738281 314.519531 54.136719 Z M 300.660156 89.007812 C 299 88.042969 294.144531 95.652344 287.152344 98.628906 L 286.109375 103.613281 L 286.238281 103.726562 C 294.339844 100.5625 302.148438 89.875 300.660156 89.007812 Z M 268.089844 66.820312 C 269.238281 62.664062 268.550781 58.847656 268.523438 58.683594 C 268.4375 58.214844 267.992188 57.90625 267.515625 57.996094 C 267.050781 58.082031 266.738281 58.53125 266.828125 59 C 266.835938 59.039062 267.472656 62.605469 266.429688 66.367188 C 266.105469 67.550781 265.710938 68.71875 265.371094 69.746094 C 264.414062 72.640625 263.777344 74.554688 264.632812 75.6875 C 265.109375 76.320312 266.089844 76.53125 267.199219 76.53125 C 268.46875 76.53125 269.902344 76.25 270.921875 76.003906 C 271.382812 75.890625 271.671875 75.429688 271.558594 74.960938 C 271.445312 74.503906 270.976562 74.214844 270.515625 74.328125 C 268.535156 74.804688 266.375 74.945312 266 74.644531 C 265.691406 74.214844 266.484375 71.839844 267.003906 70.273438 C 267.359375 69.238281 267.75 68.046875 268.089844 66.820312 Z M 273.4375 79.488281 C 273.617188 79.492188 278.058594 79.75 282.808594 76.871094 C 284.9375 75.582031 285.9375 75.648438 286.164062 75.859375 C 286.351562 76.039062 286.394531 76.71875 285.898438 77.667969 C 284.652344 80.015625 282.96875 82.359375 279.046875 83.617188 C 278.59375 83.761719 278.347656 84.25 278.488281 84.695312 C 278.609375 85.058594 278.941406 85.292969 279.304688 85.292969 C 279.394531 85.292969 279.480469 85.277344 279.570312 85.246094 C 284.085938 83.792969 286.0625 81 287.40625 78.46875 C 288.230469 76.90625 288.207031 75.429688 287.332031 74.609375 C 286.601562 73.914062 285.058594 73.484375 281.902344 75.398438 C 277.660156 77.972656 273.605469 77.765625 273.535156 77.765625 C 273.066406 77.738281 272.652344 78.097656 272.621094 78.566406 C 272.605469 79.050781 272.96875 79.457031 273.4375 79.488281 Z M 288.398438 49.546875 C 288.609375 49.121094 288.441406 48.601562 288.019531 48.390625 C 279.71875 44.175781 273.226562 49.234375 272.953125 49.453125 C 272.585938 49.75 272.523438 50.292969 272.820312 50.660156 C 272.992188 50.871094 273.242188 50.984375 273.492188 50.984375 C 273.679688 50.984375 273.867188 50.925781 274.027344 50.796875 C 274.085938 50.75 279.917969 46.203125 287.234375 49.921875 C 287.664062 50.140625 288.1875 49.96875 288.398438 49.546875 Z M 256.832031 49.355469 C 256.484375 49.679688 256.46875 50.222656 256.792969 50.570312 C 257.117188 50.917969 257.664062 50.933594 258.007812 50.617188 C 258.167969 50.472656 261.90625 47.132812 266.226562 51.6875 C 266.390625 51.867188 266.625 51.957031 266.851562 51.957031 C 267.0625 51.957031 267.277344 51.882812 267.441406 51.722656 C 267.789062 51.398438 267.804688 50.855469 267.472656 50.511719 C 261.953125 44.6875 256.882812 49.3125 256.832031 49.355469 Z M 312.171875 63.011719 C 312.214844 63.019531 312.261719 63.019531 312.304688 63.019531 C 312.722656 63.019531 313.089844 62.71875 313.152344 62.296875 C 313.914062 57.417969 310.207031 54.542969 310.046875 54.421875 C 309.671875 54.136719 309.132812 54.210938 308.847656 54.589844 C 308.558594 54.964844 308.628906 55.5 309.003906 55.796875 C 309.125 55.894531 312.050781 58.191406 311.453125 62.039062 C 311.378906 62.5 311.703125 62.945312 312.171875 63.011719 Z M 241.457031 87.554688 C 241.417969 88.027344 241.773438 88.445312 242.242188 88.480469 C 242.265625 88.480469 242.289062 88.480469 242.308594 88.480469 C 242.753906 88.480469 243.132812 88.140625 243.164062 87.691406 L 243.859375 79.246094 C 243.867188 79.191406 243.859375 79.132812 243.859375 79.078125 L 242.195312 63.992188 C 242.144531 63.523438 241.722656 63.175781 241.246094 63.230469 C 240.769531 63.28125 240.429688 63.707031 240.480469 64.179688 L 242.136719 79.183594 Z M 234.667969 89.304688 C 234.71875 89.3125 234.773438 89.320312 234.824219 89.320312 C 235.234375 89.320312 235.589844 89.03125 235.671875 88.617188 L 237.476562 79.207031 C 237.492188 79.140625 237.492188 79.078125 237.492188 79.011719 L 236.941406 65.3125 C 236.917969 64.835938 236.503906 64.464844 236.050781 64.488281 C 235.574219 64.511719 235.203125 64.910156 235.226562 65.378906 L 235.777344 78.980469 L 233.996094 88.292969 C 233.890625 88.761719 234.199219 89.214844 234.667969 89.304688 Z M 229.042969 90.253906 C 229.125 90.277344 229.207031 90.292969 229.289062 90.292969 C 229.660156 90.292969 230 90.050781 230.113281 89.679688 L 232.46875 81.792969 C 232.492188 81.703125 232.507812 81.613281 232.507812 81.523438 L 232.09375 67.40625 C 232.078125 66.933594 231.648438 66.5625 231.207031 66.570312 C 230.734375 66.585938 230.363281 66.976562 230.371094 67.453125 L 230.785156 81.433594 L 228.46875 89.191406 C 228.324219 89.636719 228.582031 90.109375 229.042969 90.253906 Z M 231.714844 110.445312 C 231.867188 110.738281 232.167969 110.90625 232.476562 110.90625 C 232.613281 110.90625 232.75 110.875 232.878906 110.808594 L 247.015625 103.335938 C 247.4375 103.117188 247.597656 102.597656 247.371094 102.175781 C 247.148438 101.753906 246.628906 101.59375 246.207031 101.820312 L 232.070312 109.292969 C 231.648438 109.511719 231.488281 110.03125 231.714844 110.445312 Z M 323.609375 95.910156 C 323.136719 95.871094 322.71875 96.210938 322.675781 96.683594 L 321.019531 114.578125 C 320.976562 115.082031 320.613281 115.300781 320.460938 115.371094 C 320.3125 115.4375 319.910156 115.574219 319.496094 115.285156 L 309.195312 108.101562 C 308.800781 107.828125 308.265625 107.925781 307.992188 108.3125 C 307.722656 108.703125 307.820312 109.238281 308.207031 109.511719 L 318.503906 116.695312 C 318.972656 117.019531 319.503906 117.1875 320.046875 117.1875 C 320.429688 117.1875 320.816406 117.101562 321.1875 116.929688 C 322.070312 116.523438 322.644531 115.699219 322.734375 114.734375 L 324.386719 96.84375 C 324.433594 96.367188 324.085938 95.945312 323.609375 95.910156 Z M 280.589844 107.941406 C 280.582031 107.941406 280.574219 107.941406 280.566406 107.941406 C 280.097656 107.941406 279.71875 108.3125 279.707031 108.78125 L 279.375 121.679688 C 279.351562 122.609375 279.855469 123.429688 280.695312 123.820312 C 281.011719 123.972656 281.351562 124.046875 281.683594 124.046875 C 282.226562 124.046875 282.757812 123.851562 283.195312 123.476562 L 294.023438 114.011719 C 294.378906 113.703125 294.417969 113.160156 294.105469 112.796875 C 293.789062 112.445312 293.246094 112.40625 292.890625 112.714844 L 282.0625 122.179688 C 281.804688 122.402344 281.53125 122.3125 281.425781 122.269531 C 281.320312 122.222656 281.078125 122.074219 281.09375 121.726562 L 281.425781 108.824219 C 281.433594 108.347656 281.066406 107.949219 280.589844 107.941406 Z M 79.253906 203.875 C 78.417969 205.207031 84.3125 208.828125 90.761719 209.542969 L 90.6875 205.742188 C 85.898438 205.949219 80.289062 202.207031 79.253906 203.875 Z M 87.953125 165.261719 C 87.613281 164.9375 87.0625 164.945312 86.738281 165.292969 C 86.414062 165.636719 86.421875 166.179688 86.769531 166.503906 C 86.859375 166.589844 95.519531 174.828125 97.984375 177.289062 C 98.429688 177.734375 98.488281 177.980469 98.472656 178.035156 C 98.351562 178.515625 96.441406 179.128906 95.414062 179.453125 C 94.828125 179.640625 94.238281 179.828125 93.714844 180.023438 C 93.269531 180.199219 93.050781 180.695312 93.226562 181.132812 C 93.355469 181.472656 93.6875 181.683594 94.027344 181.683594 C 94.132812 181.683594 94.230469 181.667969 94.335938 181.625 C 94.832031 181.433594 95.386719 181.253906 95.945312 181.082031 C 97.929688 180.445312 99.808594 179.851562 100.15625 178.433594 C 100.347656 177.671875 100.03125 176.875 99.214844 176.066406 C 96.722656 173.601562 88.039062 165.34375 87.953125 165.261719 Z M 79.789062 162.285156 C 79.738281 161.808594 79.324219 161.460938 78.847656 161.523438 C 72.066406 162.222656 70.238281 169.332031 70.222656 169.402344 C 70.109375 169.859375 70.390625 170.328125 70.851562 170.441406 C 70.917969 170.457031 70.984375 170.464844 71.054688 170.464844 C 71.4375 170.464844 71.792969 170.199219 71.890625 169.816406 C 71.953125 169.574219 73.460938 163.8125 79.019531 163.234375 C 79.496094 163.171875 79.84375 162.75 79.789062 162.285156 Z M 94.265625 151.984375 C 92.0625 151.296875 90.195312 151.449219 88.722656 152.4375 C 86.21875 154.109375 85.886719 157.570312 85.878906 157.714844 C 85.832031 158.1875 86.1875 158.605469 86.65625 158.640625 C 86.6875 158.640625 86.707031 158.640625 86.730469 158.640625 C 87.167969 158.640625 87.546875 158.300781 87.585938 157.855469 C 87.585938 157.828125 87.863281 155.058594 89.683594 153.855469 C 90.703125 153.175781 92.070312 153.097656 93.746094 153.621094 C 94.199219 153.761719 94.683594 153.507812 94.828125 153.054688 C 94.976562 152.609375 94.71875 152.125 94.265625 151.984375 Z M 94.605469 185.402344 C 94.539062 185.421875 87.554688 187.375 83.914062 186.042969 C 82.457031 185.507812 81.703125 185.996094 81.382812 186.34375 C 80.871094 186.902344 80.808594 187.738281 81.21875 188.636719 C 82.070312 190.496094 85.554688 193.535156 93.242188 193.535156 C 93.574219 193.535156 93.90625 193.527344 94.253906 193.523438 C 94.726562 193.507812 95.097656 193.105469 95.082031 192.632812 C 95.066406 192.15625 94.675781 191.773438 94.191406 191.800781 C 88.097656 191.992188 84.488281 190.21875 83.128906 188.476562 C 82.757812 187.996094 82.675781 187.671875 82.667969 187.527344 C 82.757812 187.519531 82.960938 187.519531 83.316406 187.65625 C 87.484375 189.1875 94.765625 187.144531 95.074219 187.050781 C 95.527344 186.925781 95.792969 186.449219 95.664062 185.988281 C 95.535156 185.527344 95.066406 185.273438 94.605469 185.402344 Z M 68.855469 143.878906 L 88.1875 144.707031 C 77.789062 134.121094 57.625 137.4375 47.652344 142.632812 C 37.675781 147.820312 28.320312 167.75 31.226562 179.375 C 34.132812 191.003906 35.589844 200.132812 24.574219 209.265625 C 13.554688 218.394531 17.292969 232.097656 17.292969 232.097656 C 17.292969 232.097656 22.90625 227.527344 34.550781 224.414062 C 46.195312 221.300781 64.898438 217.144531 64.898438 217.144531 C 64.898438 217.144531 68.222656 216.316406 68.644531 206.972656 C 69.058594 197.628906 65.527344 194.929688 65.527344 194.929688 C 61.78125 196.386719 53.464844 194.71875 52.015625 186.003906 C 50.558594 177.289062 58.253906 173.132812 58.253906 173.132812 L 63.863281 184.761719 C 71.144531 177.09375 68.855469 143.878906 68.855469 143.878906 Z M 143.738281 169.664062 L 136.253906 168.691406 C 135.785156 168.632812 135.347656 168.964844 135.289062 169.429688 C 135.226562 169.898438 135.558594 170.335938 136.027344 170.394531 L 143.511719 171.367188 C 143.550781 171.375 143.585938 171.375 143.625 171.375 C 144.046875 171.375 144.417969 171.058594 144.476562 170.628906 C 144.546875 170.164062 144.214844 169.726562 143.738281 169.664062 Z M 57.363281 179.015625 C 56.933594 178.8125 56.417969 179.007812 56.222656 179.4375 C 55 182.082031 53.949219 187.753906 58.683594 190.242188 C 58.8125 190.308594 58.949219 190.339844 59.085938 190.339844 C 59.394531 190.339844 59.695312 190.171875 59.847656 189.878906 C 60.066406 189.457031 59.90625 188.9375 59.484375 188.71875 C 55.007812 186.367188 57.671875 180.402344 57.785156 180.152344 C 57.980469 179.714844 57.792969 179.210938 57.363281 179.015625 Z M 118.238281 228.476562 C 118.070312 228.03125 117.570312 227.8125 117.125 227.980469 C 116.679688 228.144531 116.460938 228.644531 116.628906 229.085938 L 123.28125 246.527344 C 123.410156 246.867188 123.742188 247.078125 124.082031 247.078125 C 124.1875 247.078125 124.285156 247.0625 124.390625 247.027344 C 124.835938 246.859375 125.054688 246.363281 124.890625 245.917969 Z M 87.160156 96.804688 C 87.273438 97.175781 87.613281 97.410156 87.984375 97.410156 C 88.066406 97.410156 88.15625 97.394531 88.242188 97.371094 C 88.695312 97.226562 88.949219 96.746094 88.808594 96.292969 L 82.15625 74.910156 C 82.011719 74.457031 81.527344 74.199219 81.074219 74.34375 C 80.621094 74.488281 80.363281 74.96875 80.507812 75.421875 Z M 161.953125 92.785156 C 161.476562 92.808594 161.105469 93.210938 161.128906 93.683594 L 162.585938 126.273438 C 162.609375 126.730469 162.988281 127.09375 163.449219 127.09375 C 163.464844 127.09375 163.46875 127.09375 163.484375 127.09375 C 163.960938 127.070312 164.332031 126.671875 164.308594 126.195312 L 162.851562 93.609375 C 162.835938 93.132812 162.429688 92.765625 161.953125 92.785156 Z M 135.574219 67.007812 C 134.851562 64.890625 132.246094 57.453125 132.246094 57.453125 L 130.621094 58.019531 C 130.621094 58.019531 133.21875 65.445312 133.945312 67.566406 C 134.269531 68.515625 134.164062 68.898438 134.058594 68.976562 C 133.527344 69.34375 131.429688 68.644531 130.71875 68.070312 C 130.347656 67.777344 129.804688 67.835938 129.511719 68.207031 C 129.214844 68.574219 129.277344 69.117188 129.648438 69.414062 C 130.128906 69.796875 131.980469 70.792969 133.574219 70.792969 C 134.117188 70.792969 134.632812 70.679688 135.054688 70.386719 C 135.664062 69.941406 136.261719 69.003906 135.574219 67.007812 Z M 125.359375 51.722656 C 125.644531 51.347656 125.578125 50.8125 125.199219 50.519531 C 121.175781 47.433594 116.976562 49.976562 115.3125 51.753906 C 114.988281 52.101562 115.011719 52.644531 115.359375 52.96875 C 115.523438 53.125 115.738281 53.203125 115.949219 53.203125 C 116.175781 53.203125 116.410156 53.113281 116.574219 52.929688 C 116.726562 52.765625 120.375 48.980469 124.15625 51.882812 C 124.527344 52.167969 125.070312 52.09375 125.359375 51.722656 Z M 142.96875 49.273438 C 143.226562 48.875 143.105469 48.339844 142.703125 48.089844 C 139.269531 45.894531 135.800781 48.035156 134.441406 49.46875 C 134.117188 49.816406 134.132812 50.359375 134.480469 50.683594 C 134.644531 50.84375 134.859375 50.917969 135.070312 50.917969 C 135.296875 50.917969 135.523438 50.828125 135.695312 50.652344 C 135.816406 50.523438 138.695312 47.578125 141.78125 49.539062 C 142.183594 49.792969 142.710938 49.671875 142.96875 49.273438 Z M 129.886719 72.292969 C 125.183594 74.011719 122.464844 70.460938 122.351562 70.308594 C 122.074219 69.933594 121.535156 69.851562 121.152344 70.128906 C 120.765625 70.40625 120.683594 70.945312 120.960938 71.328125 C 120.992188 71.367188 123.332031 74.480469 127.398438 74.480469 C 128.332031 74.480469 129.359375 74.3125 130.46875 73.90625 C 130.914062 73.742188 131.148438 73.25 130.984375 72.804688 C 130.832031 72.351562 130.335938 72.128906 129.886719 72.292969 Z M 153.578125 30.648438 C 153.578125 30.648438 156.28125 29.511719 156.28125 27.746094 C 156.28125 25.980469 152.640625 22.453125 146.199219 19.964844 C 139.757812 17.476562 131.234375 3.980469 116.679688 5.542969 C 102.128906 7.101562 101.820312 14.054688 101.820312 14.054688 C 93.089844 16.128906 89.140625 24.226562 89.140625 35.746094 C 89.140625 47.269531 93.195312 52.667969 93.195312 52.667969 C 93.195312 52.667969 93.503906 51.210938 95.273438 49.242188 C 97.039062 47.269531 100.363281 47.167969 100.363281 47.167969 C 100.363281 47.167969 104.726562 58.171875 104.832031 59.316406 C 104.9375 60.460938 107.226562 62.121094 107.429688 60.039062 C 107.640625 57.96875 110.859375 42.292969 110.859375 42.292969 C 110.859375 42.292969 120.417969 44.78125 132.585938 44.265625 C 144.75 43.746094 154.515625 41.566406 154.929688 39.699219 C 155.34375 37.828125 152.121094 37.722656 152.121094 37.722656 C 152.121094 37.722656 156.378906 37.414062 156.902344 34.609375 C 157.421875 31.789062 153.578125 30.648438 153.578125 30.648438 Z M 124.15625 82.855469 C 124.15625 82.855469 124.324219 82.878906 124.625 82.910156 C 124.332031 82.871094 124.15625 82.855469 124.15625 82.855469 Z M 124.15625 82.855469 C 115.632812 81.613281 112.511719 78.289062 110.433594 75.800781 C 108.488281 73.460938 110.738281 84.613281 122.828125 85.34375 C 124.003906 84.152344 124.15625 82.855469 124.15625 82.855469 Z M 233.300781 159.035156 C 233.300781 160.105469 234.167969 160.972656 235.242188 160.972656 C 236.3125 160.972656 237.183594 160.105469 237.183594 159.035156 C 237.183594 157.960938 236.3125 157.097656 235.242188 157.097656 C 234.167969 157.097656 233.300781 157.960938 233.300781 159.035156 Z M 80.085938 173.148438 C 80.085938 174.21875 80.953125 175.085938 82.027344 175.085938 C 83.097656 175.085938 83.96875 174.21875 83.96875 173.148438 C 83.96875 172.078125 83.097656 171.210938 82.027344 171.210938 C 80.953125 171.210938 80.085938 172.078125 80.085938 173.148438 Z M 92.832031 165.050781 C 92.832031 166.121094 93.699219 166.988281 94.773438 166.988281 C 95.847656 166.988281 96.714844 166.121094 96.714844 165.050781 C 96.714844 163.980469 95.847656 163.113281 94.773438 163.113281 C 93.699219 163.113281 92.832031 163.988281 92.832031 165.050781 Z M 263.515625 200.550781 L 262.125 182.835938 C 262.125 182.835938 271.269531 178.683594 271.269531 169.832031 C 271.269531 160.972656 264.898438 162.078125 264.898438 162.078125 C 264.898438 162.078125 261.847656 185.054688 255.472656 188.929688 C 249.097656 192.804688 237.175781 202.765625 237.175781 202.765625 C 226.640625 204.425781 212.222656 197.78125 213.613281 188.929688 C 215.003906 180.078125 220.265625 168.449219 220.265625 168.449219 C 234.683594 165.960938 248.820312 171.496094 248.820312 171.496094 L 256.023438 163.195312 L 256.574219 149.632812 C 248.8125 142.710938 236.335938 144.648438 230.792969 151.019531 C 224.972656 145.484375 223.859375 134.136719 224.972656 132.75 C 226.082031 131.363281 229.960938 133.300781 229.960938 133.300781 C 229.960938 133.300781 227.742188 127.484375 228.851562 126.105469 C 229.960938 124.71875 236.335938 128.324219 236.335938 128.324219 C 236.335938 128.324219 235.226562 122.789062 236.886719 122.507812 C 238.550781 122.230469 244.09375 127.492188 244.09375 127.492188 C 244.09375 127.492188 244.921875 123.898438 246.863281 123.898438 C 248.804688 123.898438 252.964844 131.371094 259.058594 136.902344 C 265.160156 142.4375 277.90625 141.058594 282.621094 158.210938 C 287.332031 175.371094 277.355469 188.378906 271.804688 192.804688 C 266.285156 197.230469 263.515625 200.550781 263.515625 200.550781 Z M 238.210938 175.265625 C 237.816406 174.113281 236.480469 173.171875 233.875 173.992188 C 228.808594 175.589844 224.472656 175.613281 224.433594 175.613281 C 223.960938 175.613281 223.574219 176 223.574219 176.472656 C 223.574219 176.949219 223.960938 177.332031 224.433594 177.332031 C 224.625 177.332031 229.0625 177.308594 234.394531 175.628906 C 235.566406 175.257812 236.417969 175.335938 236.585938 175.808594 C 236.957031 176.902344 235.195312 179.804688 230.523438 181.472656 C 230.074219 181.632812 229.84375 182.121094 230 182.574219 C 230.128906 182.929688 230.453125 183.144531 230.808594 183.144531 C 230.90625 183.144531 231.003906 183.132812 231.09375 183.09375 C 236.472656 181.171875 238.972656 177.535156 238.210938 175.265625 Z M 245.511719 153.332031 C 245.679688 153.550781 245.933594 153.671875 246.191406 153.671875 C 246.371094 153.671875 246.5625 153.613281 246.710938 153.492188 C 247.089844 153.203125 247.15625 152.664062 246.871094 152.285156 C 243.230469 147.566406 236.683594 149.253906 233.730469 150.800781 C 233.308594 151.019531 233.148438 151.539062 233.367188 151.960938 C 233.585938 152.382812 234.109375 152.542969 234.53125 152.324219 C 234.832031 152.164062 241.847656 148.574219 245.511719 153.332031 Z M 266.574219 174.738281 C 266.703125 174.808594 266.84375 174.84375 266.980469 174.84375 C 267.289062 174.84375 267.585938 174.679688 267.734375 174.390625 C 270.945312 168.445312 266.941406 165.050781 266.90625 165.019531 C 266.542969 164.71875 266.007812 164.769531 265.695312 165.132812 C 265.394531 165.496094 265.441406 166.039062 265.804688 166.339844 C 265.921875 166.445312 268.742188 168.902344 266.21875 173.578125 C 266 173.992188 266.15625 174.511719 266.574219 174.738281 Z M 263.515625 200.550781 L 249.378906 207.46875 L 246.605469 221.863281 L 236.070312 208.300781 L 231.429688 211.964844 C 231.429688 211.964844 222.488281 211.550781 210.636719 213.207031 C 198.789062 214.867188 187.558594 216.738281 178 229.398438 C 172.207031 237.074219 167.480469 244.054688 164.65625 248.367188 L 217.375 248.367188 C 219.902344 246.332031 222.734375 243.785156 224.980469 241.023438 C 230.386719 234.382812 238.699219 228.980469 250.34375 233.136719 C 260.003906 236.582031 267.507812 245.449219 269.789062 248.367188 L 275.332031 248.367188 C 280.089844 248.367188 284.378906 245.503906 286.199219 241.113281 L 297.316406 214.300781 L 269.878906 209.46875 Z M 263.515625 200.550781 " fill-opacity="1" fill-rule="nonzero"/></svg>